# xmcd
#
# Track frame offsets:
#   150
#   18114
#   39813
#   58164
#   76533
#   89331
#   105268
#   122140
#   141854
#   156842
#   173913
#   190537
#
# Disc length: 2736 seconds
#
# Revision: 0
# Processed by: cddbd v1.5.1PL0 Copyright (c) Steve Scherf et al.
# Submitted via: uFREEDB ActiveX Control 1.5
#
DISCID=840aae0c
DTITLE=Chitãozinho and Xororó - Aqui o Sistema é Bruto
DYEAR=2005
DGENRE=Country
TTITLE0=Sistema Bruto
TTITLE1=Sinônimos
TTITLE2=Essência do Prazer
TTITLE3=Sem Destino
TTITLE4=Se
TTITLE5=Só Sei que Dói
TTITLE6=Quero Você
TTITLE7=Mulheres
TTITLE8=Amor Infinito
TTITLE9=De Vez em Quando Vem
TTITLE10=Tradição Gaúcha
TTITLE11=Zé Bento
EXTD=
EXTT0=
EXTT1=
EXTT2=
EXTT3=
EXTT4=
EXTT5=
EXTT6=
EXTT7=
EXTT8=
EXTT9=
EXTT10=
EXTT11=
PLAYORDER=
